<?xml version="1.0" encoding="UTF-8"?>
<svg width="1126px" height="679px" viewBox="0 0 1126 679" version="1.1" xmlns="http://www.w3.org/2000/svg" xmlns:xlink="http://www.w3.org/1999/xlink">
    <!-- Generator: Sketch 40 (33762) - http://www.bohemiancoding.com/sketch -->
    <title>Magazine</title>
    <desc>Created with Sketch.</desc>
    <defs></defs>
    <g id="Page-1" stroke="none" stroke-width="1" fill="none" fill-rule="evenodd">
        <g id="Profile" transform="translate(-157.000000, -112.000000)" fill="#4A4A4A">
            <g id="book" transform="translate(157.000000, 112.000000)">
                <path d="M857.861795,3.63322742 C638.98595,3.63322742 562.135177,6.58893016 562.135177,6.58893016 C562.135177,6.58893016 501.232855,6.04405715e-07 458.804095,1.68198286 C416.375336,3.36396511 71.4749061,10.1079079 0,3.63322752 C6.99738435e-06,191.597991 2.48747022e-06,671.271805 2.48747022e-06,671.271805 C2.48747022e-06,671.271805 90.4309284,669.626715 173.065104,671.271805 C255.699279,672.916895 336.842045,681.131063 458.804095,678.475909 C580.766146,675.820755 557.166666,671.271805 562.135178,671.271805 C567.381759,671.271805 552.93107,678.475909 666.663996,678.475909 C809.830737,678.475909 857.735678,671.271805 953.442557,671.271805 C1060.4452,668.398158 1126,671.271805 1126,671.271805 L1126,0 C1126,0 961.463346,3.63322742 857.861795,3.63322742 Z" id="Magazine"></path>
            </g>
        </g>
    </g>
</svg>